<svg width="21" height="22" viewBox="0 0 21 22" fill="none" xmlns="http://www.w3.org/2000/svg">
<path d="M19 14.6188C19 17.7624 17.1259 19.6365 13.9823 19.6365H12.9546C12.4796 19.6365 12.0909 19.2479 12.0909 18.7729V13.7897C12.0909 13.5565 12.2809 13.3579 12.5141 13.3579L14.0341 13.332C14.155 13.3233 14.2587 13.237 14.2846 13.1161L14.5869 11.4665C14.6128 11.311 14.4918 11.1642 14.3277 11.1642L12.4882 11.1901C12.2464 11.1901 12.0564 11.0001 12.0478 10.767L12.0132 8.65104C12.0132 8.51286 12.1255 8.39196 12.2723 8.39196L14.345 8.35741C14.4918 8.35741 14.6041 8.24515 14.6041 8.09833L14.5696 6.02558C14.5696 5.87876 14.4573 5.7665 14.3105 5.7665L11.9787 5.80105C10.545 5.82696 9.40503 7.0015 9.43094 8.43513L9.47411 10.8101C9.48275 11.052 9.29276 11.242 9.05094 11.2506L8.01457 11.2679C7.86775 11.2679 7.75549 11.3801 7.75549 11.5269L7.78139 13.1679C7.78139 13.3147 7.89366 13.4269 8.04047 13.4269L9.07685 13.4097C9.31867 13.4097 9.50865 13.5997 9.51729 13.8329L9.59501 18.7556C9.60365 19.2392 9.21501 19.6365 8.73137 19.6365H6.74502C3.60138 19.6365 1.72729 17.7624 1.72729 14.6101V7.38149C1.72729 4.23786 3.60138 2.36377 6.74502 2.36377H13.9823C17.1259 2.36377 19 4.23786 19 7.38149V14.6188Z" fill="white"/>
</svg>
