<svg width="21" height="22" viewBox="0 0 21 22" fill="none" xmlns="http://www.w3.org/2000/svg">
<path d="M16.5455 3.22729C17.0036 3.22729 17.4429 3.40927 17.7668 3.7332C18.0908 4.05713 18.2727 4.49647 18.2727 4.95457V17.0455C18.2727 17.5036 18.0908 17.9429 17.7668 18.2668C17.4429 18.5908 17.0036 18.7727 16.5455 18.7727H4.45457C3.99647 18.7727 3.55713 18.5908 3.2332 18.2668C2.90927 17.9429 2.72729 17.5036 2.72729 17.0455V4.95457C2.72729 4.49647 2.90927 4.05713 3.2332 3.7332C3.55713 3.40927 3.99647 3.22729 4.45457 3.22729H16.5455ZM16.1137 16.6137V12.0364C16.1137 11.2897 15.817 10.5736 15.289 10.0456C14.761 9.51756 14.0449 9.22093 13.2982 9.22093C12.5641 9.22093 11.7091 9.67002 11.2946 10.3437V9.38502H8.88502V16.6137H11.2946V12.3559C11.2946 11.6909 11.83 11.1468 12.495 11.1468C12.8157 11.1468 13.1232 11.2742 13.35 11.501C13.5767 11.7277 13.7041 12.0353 13.7041 12.3559V16.6137H16.1137ZM6.0782 8.02911C6.46301 8.02911 6.83205 7.87625 7.10415 7.60415C7.37625 7.33205 7.52911 6.96301 7.52911 6.5782C7.52911 5.77502 6.88139 5.11866 6.0782 5.11866C5.69111 5.11866 5.31987 5.27243 5.04615 5.54615C4.77243 5.81987 4.61866 6.19111 4.61866 6.5782C4.61866 7.38139 5.27502 8.02911 6.0782 8.02911ZM7.27866 16.6137V9.38502H4.88639V16.6137H7.27866Z" fill="white"/>
</svg>
