<svg width="1728" height="702" viewBox="0 0 1728 702" fill="none" xmlns="http://www.w3.org/2000/svg">
<g clip-path="url(#clip0_0_185)" filter="url(#filter0_d_0_185)">
<path fill-rule="evenodd" clip-rule="evenodd" d="M-94 319.2V413.4H253.5V601.8H601H948.5V225H1296V413.4H1643.5V460.5H1991V696H1643.5H1296H948.5H601H253.5H-94V319.2Z" fill="#2D3C65" fill-opacity="0.6"/>
<path d="M601 601.8H253.5V413.4H-94V319.2V696M601 601.8V601.8ZM601 601.8H948.5V225H1296V413.4H1643.5V460.5H1991V696H1643.5M1643.5 696V696ZM1643.5 696H1296M1296 696V696ZM1296 696H948.5M948.5 696V696ZM948.5 696H601M601 696V696ZM601 696H253.5M253.5 696V696ZM253.5 696H-94M-94 696V696Z" stroke="#E95A0C" stroke-width="2"/>
<path d="M798.473 366.028V364.249C797.759 364.237 797.1 364.174 796.495 364.059C795.897 363.938 795.379 363.782 794.941 363.593V361.753C795.384 361.961 795.931 362.148 796.582 362.315C797.232 362.481 797.863 362.576 798.473 362.6V359.361C797.638 359.079 796.959 358.786 796.435 358.481C795.917 358.176 795.537 357.822 795.295 357.419C795.053 357.01 794.933 356.521 794.933 355.951C794.933 355.363 795.079 354.86 795.373 354.44C795.672 354.014 796.087 353.677 796.616 353.429C797.152 353.182 797.771 353.035 798.473 352.989V351.581H799.595V352.963C800.234 352.98 800.824 353.052 801.366 353.179C801.912 353.3 802.433 353.47 802.928 353.688L802.298 355.294C801.866 355.122 801.417 354.981 800.951 354.871C800.485 354.762 800.033 354.687 799.595 354.647V357.807C800.298 358.037 800.922 358.285 801.469 358.55C802.022 358.815 802.454 359.148 802.764 359.551C803.081 359.949 803.239 360.47 803.239 361.114C803.239 361.961 802.928 362.66 802.307 363.213C801.685 363.759 800.781 364.088 799.595 364.197V366.028H798.473ZM799.595 362.53C800.148 362.461 800.56 362.317 800.83 362.099C801.101 361.874 801.236 361.583 801.236 361.227C801.236 360.985 801.178 360.78 801.063 360.613C800.954 360.447 800.778 360.297 800.537 360.164C800.301 360.032 799.987 359.903 799.595 359.776V362.53ZM798.473 357.384V354.681C798.139 354.716 797.857 354.785 797.627 354.889C797.396 354.992 797.224 355.127 797.109 355.294C796.993 355.461 796.936 355.66 796.936 355.89C796.936 356.144 796.988 356.359 797.091 356.538C797.195 356.716 797.359 356.872 797.583 357.004C797.814 357.137 798.11 357.263 798.473 357.384ZM809.737 357.108C810.548 357.108 811.262 357.255 811.878 357.548C812.5 357.836 812.983 358.262 813.329 358.826C813.674 359.384 813.847 360.069 813.847 360.881C813.847 361.768 813.66 362.533 813.285 363.178C812.911 363.817 812.362 364.309 811.636 364.655C810.911 365 810.027 365.173 808.985 365.173C808.323 365.173 807.704 365.115 807.129 365C806.559 364.885 806.067 364.712 805.652 364.482V362.651C806.084 362.893 806.602 363.092 807.207 363.247C807.811 363.397 808.389 363.472 808.942 363.472C809.529 363.472 810.033 363.385 810.453 363.213C810.873 363.04 811.196 362.775 811.42 362.418C811.651 362.061 811.766 361.609 811.766 361.063C811.766 360.337 811.533 359.779 811.066 359.387C810.606 358.99 809.883 358.792 808.899 358.792C808.554 358.792 808.185 358.823 807.794 358.887C807.408 358.944 807.086 359.007 806.827 359.076L805.937 358.55L806.412 352.376H812.975V354.163H808.2L807.923 357.306C808.13 357.26 808.378 357.217 808.666 357.177C808.954 357.131 809.311 357.108 809.737 357.108ZM824.644 358.679C824.644 359.698 824.564 360.611 824.402 361.417C824.247 362.217 823.999 362.896 823.66 363.454C823.32 364.013 822.877 364.439 822.33 364.732C821.783 365.026 821.121 365.173 820.344 365.173C819.371 365.173 818.568 364.917 817.935 364.404C817.302 363.886 816.832 363.144 816.527 362.176C816.222 361.204 816.07 360.038 816.07 358.679C816.07 357.321 816.208 356.158 816.484 355.191C816.766 354.218 817.221 353.472 817.848 352.954C818.476 352.436 819.308 352.177 820.344 352.177C821.323 352.177 822.128 352.436 822.762 352.954C823.401 353.467 823.873 354.209 824.178 355.182C824.489 356.149 824.644 357.315 824.644 358.679ZM818.116 358.679C818.116 359.744 818.185 360.634 818.323 361.347C818.467 362.061 818.703 362.597 819.031 362.954C819.36 363.305 819.797 363.48 820.344 363.48C820.891 363.48 821.328 363.305 821.656 362.954C821.985 362.602 822.221 362.07 822.365 361.356C822.514 360.642 822.589 359.75 822.589 358.679C822.589 357.62 822.517 356.734 822.373 356.02C822.229 355.306 821.993 354.771 821.665 354.414C821.337 354.051 820.897 353.87 820.344 353.87C819.791 353.87 819.351 354.051 819.023 354.414C818.7 354.771 818.467 355.306 818.323 356.02C818.185 356.734 818.116 357.62 818.116 358.679ZM835.295 358.679C835.295 359.698 835.214 360.611 835.053 361.417C834.897 362.217 834.65 362.896 834.31 363.454C833.971 364.013 833.527 364.439 832.981 364.732C832.434 365.026 831.772 365.173 830.995 365.173C830.022 365.173 829.219 364.917 828.585 364.404C827.952 363.886 827.483 363.144 827.178 362.176C826.873 361.204 826.72 360.038 826.72 358.679C826.72 357.321 826.858 356.158 827.135 355.191C827.417 354.218 827.872 353.472 828.499 352.954C829.127 352.436 829.958 352.177 830.995 352.177C831.973 352.177 832.779 352.436 833.412 352.954C834.051 353.467 834.523 354.209 834.828 355.182C835.139 356.149 835.295 357.315 835.295 358.679ZM828.767 358.679C828.767 359.744 828.836 360.634 828.974 361.347C829.118 362.061 829.354 362.597 829.682 362.954C830.01 363.305 830.448 363.48 830.995 363.48C831.541 363.48 831.979 363.305 832.307 362.954C832.635 362.602 832.871 362.07 833.015 361.356C833.165 360.642 833.24 359.75 833.24 358.679C833.24 357.62 833.168 356.734 833.024 356.02C832.88 355.306 832.644 354.771 832.316 354.414C831.988 354.051 831.547 353.87 830.995 353.87C830.442 353.87 830.002 354.051 829.673 354.414C829.351 354.771 829.118 355.306 828.974 356.02C828.836 356.734 828.767 357.62 828.767 358.679ZM840.099 362.945L840.22 363.144C840.117 363.558 839.984 364.004 839.823 364.482C839.662 364.96 839.486 365.437 839.296 365.915C839.106 366.399 838.914 366.854 838.718 367.28H837.233C837.354 366.813 837.469 366.324 837.578 365.812C837.693 365.305 837.797 364.804 837.889 364.309C837.987 363.808 838.065 363.354 838.122 362.945H840.099ZM851.294 358.679C851.294 359.698 851.213 360.611 851.052 361.417C850.897 362.217 850.649 362.896 850.31 363.454C849.97 364.013 849.527 364.439 848.98 364.732C848.433 365.026 847.771 365.173 846.994 365.173C846.021 365.173 845.218 364.917 844.585 364.404C843.952 363.886 843.482 363.144 843.177 362.176C842.872 361.204 842.72 360.038 842.72 358.679C842.72 357.321 842.858 356.158 843.134 355.191C843.416 354.218 843.871 353.472 844.498 352.954C845.126 352.436 845.958 352.177 846.994 352.177C847.973 352.177 848.778 352.436 849.412 352.954C850.051 353.467 850.523 354.209 850.828 355.182C851.139 356.149 851.294 357.315 851.294 358.679ZM844.766 358.679C844.766 359.744 844.835 360.634 844.973 361.347C845.117 362.061 845.353 362.597 845.681 362.954C846.01 363.305 846.447 363.48 846.994 363.48C847.541 363.48 847.978 363.305 848.306 362.954C848.635 362.602 848.871 362.07 849.014 361.356C849.164 360.642 849.239 359.75 849.239 358.679C849.239 357.62 849.167 356.734 849.023 356.02C848.879 355.306 848.643 354.771 848.315 354.414C847.987 354.051 847.547 353.87 846.994 353.87C846.441 353.87 846.001 354.051 845.673 354.414C845.35 354.771 845.117 355.306 844.973 356.02C844.835 356.734 844.766 357.62 844.766 358.679ZM861.945 358.679C861.945 359.698 861.864 360.611 861.703 361.417C861.547 362.217 861.3 362.896 860.96 363.454C860.621 364.013 860.177 364.439 859.631 364.732C859.084 365.026 858.422 365.173 857.645 365.173C856.672 365.173 855.869 364.917 855.235 364.404C854.602 363.886 854.133 363.144 853.828 362.176C853.523 361.204 853.37 360.038 853.37 358.679C853.37 357.321 853.508 356.158 853.785 355.191C854.067 354.218 854.522 353.472 855.149 352.954C855.776 352.436 856.608 352.177 857.645 352.177C858.623 352.177 859.429 352.436 860.062 352.954C860.701 353.467 861.173 354.209 861.478 355.182C861.789 356.149 861.945 357.315 861.945 358.679ZM855.417 358.679C855.417 359.744 855.486 360.634 855.624 361.347C855.768 362.061 856.004 362.597 856.332 362.954C856.66 363.305 857.098 363.48 857.645 363.48C858.191 363.48 858.629 363.305 858.957 362.954C859.285 362.602 859.521 362.07 859.665 361.356C859.815 360.642 859.89 359.75 859.89 358.679C859.89 357.62 859.818 356.734 859.674 356.02C859.53 355.306 859.294 354.771 858.966 354.414C858.638 354.051 858.197 353.87 857.645 353.87C857.092 353.87 856.651 354.051 856.323 354.414C856.001 354.771 855.768 355.306 855.624 356.02C855.486 356.734 855.417 357.62 855.417 358.679ZM872.595 358.679C872.595 359.698 872.515 360.611 872.353 361.417C872.198 362.217 871.951 362.896 871.611 363.454C871.271 364.013 870.828 364.439 870.281 364.732C869.734 365.026 869.072 365.173 868.295 365.173C867.322 365.173 866.519 364.917 865.886 364.404C865.253 363.886 864.784 363.144 864.478 362.176C864.173 361.204 864.021 360.038 864.021 358.679C864.021 357.321 864.159 356.158 864.435 355.191C864.717 354.218 865.172 353.472 865.8 352.954C866.427 352.436 867.259 352.177 868.295 352.177C869.274 352.177 870.08 352.436 870.713 352.954C871.352 353.467 871.824 354.209 872.129 355.182C872.44 356.149 872.595 357.315 872.595 358.679ZM866.067 358.679C866.067 359.744 866.136 360.634 866.275 361.347C866.418 362.061 866.654 362.597 866.983 362.954C867.311 363.305 867.748 363.48 868.295 363.48C868.842 363.48 869.279 363.305 869.608 362.954C869.936 362.602 870.172 362.07 870.316 361.356C870.465 360.642 870.54 359.75 870.54 358.679C870.54 357.62 870.468 356.734 870.324 356.02C870.18 355.306 869.944 354.771 869.616 354.414C869.288 354.051 868.848 353.87 868.295 353.87C867.742 353.87 867.302 354.051 866.974 354.414C866.652 354.771 866.418 355.306 866.275 356.02C866.136 356.734 866.067 357.62 866.067 358.679Z" fill="white"/>
<path d="M798.469 376.773C799.354 376.773 800.06 377.077 800.586 377.686C801.113 378.295 801.376 379.21 801.376 380.432C801.376 381.239 801.255 381.917 801.014 382.465C800.772 383.013 800.431 383.428 799.99 383.709C799.554 383.989 799.038 384.13 798.443 384.13C798.067 384.13 797.737 384.08 797.452 383.981C797.167 383.881 796.923 383.747 796.72 383.579C796.517 383.411 796.349 383.227 796.215 383.029H796.137C796.15 383.197 796.165 383.4 796.182 383.637C796.204 383.875 796.215 384.082 796.215 384.259V387.173H795.133V376.902H796.021L796.163 377.951H796.215C796.353 377.735 796.521 377.539 796.72 377.362C796.919 377.181 797.16 377.038 797.445 376.935C797.735 376.827 798.076 376.773 798.469 376.773ZM798.281 377.679C797.789 377.679 797.391 377.774 797.089 377.964C796.791 378.154 796.573 378.439 796.435 378.819C796.297 379.195 796.223 379.667 796.215 380.237V380.445C796.215 381.045 796.28 381.552 796.409 381.966C796.543 382.381 796.761 382.696 797.063 382.912C797.37 383.128 797.78 383.236 798.294 383.236C798.734 383.236 799.101 383.117 799.395 382.88C799.688 382.642 799.906 382.312 800.049 381.889C800.196 381.461 800.269 380.971 800.269 380.419C800.269 379.581 800.105 378.916 799.777 378.424C799.453 377.928 798.954 377.679 798.281 377.679ZM809.772 380.438C809.772 381.021 809.697 381.541 809.546 381.999C809.395 382.457 809.176 382.843 808.892 383.158C808.607 383.473 808.261 383.715 807.855 383.883C807.454 384.047 806.998 384.13 806.489 384.13C806.014 384.13 805.578 384.047 805.181 383.883C804.788 383.715 804.447 383.473 804.157 383.158C803.873 382.843 803.65 382.457 803.49 381.999C803.335 381.541 803.257 381.021 803.257 380.438C803.257 379.661 803.389 379 803.652 378.456C803.916 377.908 804.291 377.491 804.779 377.207C805.271 376.917 805.856 376.773 806.534 376.773C807.182 376.773 807.747 376.917 808.231 377.207C808.719 377.496 809.097 377.915 809.364 378.463C809.636 379.007 809.772 379.665 809.772 380.438ZM804.371 380.438C804.371 381.008 804.447 381.502 804.598 381.921C804.749 382.34 804.982 382.664 805.297 382.893C805.612 383.121 806.018 383.236 806.515 383.236C807.007 383.236 807.411 383.121 807.726 382.893C808.045 382.664 808.281 382.34 808.432 381.921C808.583 381.502 808.658 381.008 808.658 380.438C808.658 379.873 808.583 379.385 808.432 378.975C808.281 378.56 808.047 378.241 807.732 378.016C807.417 377.792 807.009 377.679 806.508 377.679C805.77 377.679 805.228 377.923 804.883 378.411C804.542 378.899 804.371 379.575 804.371 380.438ZM814.321 383.249C814.498 383.249 814.68 383.234 814.865 383.203C815.051 383.173 815.202 383.137 815.319 383.093V383.929C815.194 383.985 815.019 384.032 814.794 384.071C814.574 384.11 814.358 384.13 814.147 384.13C813.771 384.13 813.43 384.065 813.123 383.935C812.817 383.801 812.571 383.577 812.385 383.262C812.204 382.947 812.113 382.51 812.113 381.954V377.744H811.103V377.219L812.119 376.799L812.547 375.257H813.195V376.902H815.273V377.744H813.195V381.921C813.195 382.366 813.296 382.698 813.499 382.918C813.706 383.139 813.98 383.249 814.321 383.249ZM819.887 376.773C820.492 376.773 821.01 376.906 821.442 377.174C821.873 377.442 822.204 377.817 822.432 378.301C822.661 378.78 822.776 379.341 822.776 379.985V380.652H817.873C817.886 381.485 818.093 382.12 818.495 382.556C818.896 382.992 819.462 383.21 820.192 383.21C820.641 383.21 821.038 383.169 821.383 383.087C821.729 383.005 822.087 382.884 822.458 382.724V383.67C822.1 383.829 821.744 383.946 821.39 384.019C821.04 384.093 820.626 384.13 820.146 384.13C819.464 384.13 818.868 383.991 818.359 383.715C817.854 383.434 817.461 383.024 817.18 382.485C816.9 381.945 816.759 381.284 816.759 380.503C816.759 379.739 816.887 379.078 817.141 378.521C817.4 377.96 817.763 377.528 818.229 377.226C818.7 376.924 819.253 376.773 819.887 376.773ZM819.874 377.653C819.3 377.653 818.842 377.841 818.501 378.217C818.16 378.592 817.957 379.117 817.893 379.791H821.649C821.644 379.367 821.578 378.996 821.448 378.677C821.323 378.353 821.131 378.102 820.872 377.925C820.613 377.744 820.28 377.653 819.874 377.653ZM828.361 376.773C829.203 376.773 829.84 376.98 830.271 377.394C830.703 377.804 830.919 378.465 830.919 379.376V384H829.857V379.447C829.857 378.856 829.721 378.413 829.449 378.12C829.181 377.826 828.769 377.679 828.212 377.679C827.426 377.679 826.874 377.902 826.554 378.346C826.235 378.791 826.075 379.436 826.075 380.283V384H825V376.902H825.868L826.029 377.925H826.088C826.239 377.675 826.431 377.466 826.664 377.297C826.897 377.124 827.158 376.995 827.448 376.909C827.737 376.818 828.041 376.773 828.361 376.773ZM835.824 383.249C836.001 383.249 836.183 383.234 836.368 383.203C836.554 383.173 836.705 383.137 836.822 383.093V383.929C836.696 383.985 836.522 384.032 836.297 384.071C836.077 384.11 835.861 384.13 835.649 384.13C835.274 384.13 834.933 384.065 834.626 383.935C834.32 383.801 834.074 383.577 833.888 383.262C833.707 382.947 833.616 382.51 833.616 381.954V377.744H832.606V377.219L833.622 376.799L834.05 375.257H834.697V376.902H836.776V377.744H834.697V381.921C834.697 382.366 834.799 382.698 835.002 382.918C835.209 383.139 835.483 383.249 835.824 383.249ZM839.732 376.902V384H838.657V376.902H839.732ZM839.208 374.247C839.385 374.247 839.536 374.305 839.661 374.422C839.791 374.534 839.855 374.711 839.855 374.953C839.855 375.19 839.791 375.367 839.661 375.484C839.536 375.6 839.385 375.659 839.208 375.659C839.022 375.659 838.867 375.6 838.741 375.484C838.621 375.367 838.56 375.19 838.56 374.953C838.56 374.711 838.621 374.534 838.741 374.422C838.867 374.305 839.022 374.247 839.208 374.247ZM845.065 376.786C845.911 376.786 846.539 376.976 846.95 377.355C847.36 377.735 847.565 378.342 847.565 379.175V384H846.781L846.574 382.951H846.522C846.324 383.21 846.116 383.428 845.9 383.605C845.685 383.778 845.434 383.909 845.149 384C844.869 384.086 844.523 384.13 844.113 384.13C843.681 384.13 843.297 384.054 842.96 383.903C842.628 383.752 842.364 383.523 842.17 383.216C841.98 382.91 841.885 382.521 841.885 382.051C841.885 381.343 842.166 380.799 842.727 380.419C843.288 380.039 844.143 379.832 845.292 379.797L846.516 379.745V379.311C846.516 378.698 846.384 378.269 846.121 378.023C845.857 377.776 845.486 377.653 845.007 377.653C844.635 377.653 844.281 377.707 843.945 377.815C843.608 377.923 843.288 378.051 842.986 378.197L842.656 377.381C842.975 377.217 843.342 377.077 843.757 376.96C844.171 376.844 844.607 376.786 845.065 376.786ZM846.503 380.503L845.421 380.548C844.536 380.583 843.912 380.727 843.55 380.982C843.187 381.237 843.006 381.597 843.006 382.064C843.006 382.469 843.129 382.77 843.375 382.964C843.621 383.158 843.947 383.255 844.353 383.255C844.983 383.255 845.499 383.08 845.9 382.731C846.302 382.381 846.503 381.856 846.503 381.157V380.503ZM851.259 384H850.178V373.923H851.259V384ZM860.998 376.773C861.141 376.773 861.29 376.781 861.445 376.799C861.601 376.811 861.739 376.831 861.86 376.857L861.724 377.854C861.607 377.824 861.478 377.8 861.335 377.783C861.193 377.766 861.059 377.757 860.934 377.757C860.649 377.757 860.379 377.815 860.124 377.932C859.874 378.044 859.653 378.208 859.464 378.424C859.274 378.636 859.125 378.892 859.017 379.195C858.909 379.493 858.855 379.825 858.855 380.192V384H857.773V376.902H858.667L858.784 378.21H858.829C858.976 377.947 859.153 377.707 859.36 377.491C859.567 377.271 859.807 377.096 860.079 376.967C860.355 376.837 860.662 376.773 860.998 376.773ZM866.331 376.773C866.936 376.773 867.454 376.906 867.885 377.174C868.317 377.442 868.647 377.817 868.876 378.301C869.105 378.78 869.219 379.341 869.219 379.985V380.652H864.317C864.33 381.485 864.537 382.12 864.939 382.556C865.34 382.992 865.906 383.21 866.635 383.21C867.084 383.21 867.482 383.169 867.827 383.087C868.172 383.005 868.531 382.884 868.902 382.724V383.67C868.544 383.829 868.188 383.946 867.834 384.019C867.484 384.093 867.069 384.13 866.59 384.13C865.908 384.13 865.312 383.991 864.803 383.715C864.298 383.434 863.905 383.024 863.624 382.485C863.343 381.945 863.203 381.284 863.203 380.503C863.203 379.739 863.33 379.078 863.585 378.521C863.844 377.96 864.207 377.528 864.673 377.226C865.144 376.924 865.696 376.773 866.331 376.773ZM866.318 377.653C865.744 377.653 865.286 377.841 864.945 378.217C864.604 378.592 864.401 379.117 864.336 379.791H868.093C868.088 379.367 868.021 378.996 867.892 378.677C867.767 378.353 867.575 378.102 867.315 377.925C867.056 377.744 866.724 377.653 866.318 377.653ZM873.004 384L870.31 376.902H871.463L873.024 381.196C873.132 381.489 873.242 381.813 873.354 382.167C873.466 382.521 873.544 382.806 873.587 383.022H873.633C873.684 382.806 873.771 382.521 873.892 382.167C874.012 381.809 874.123 381.485 874.222 381.196L875.783 376.902H876.935L874.235 384H873.004ZM881.206 376.773C881.81 376.773 882.329 376.906 882.76 377.174C883.192 377.442 883.522 377.817 883.751 378.301C883.98 378.78 884.094 379.341 884.094 379.985V380.652H879.192C879.205 381.485 879.412 382.12 879.814 382.556C880.215 382.992 880.781 383.21 881.51 383.21C881.959 383.21 882.357 383.169 882.702 383.087C883.047 383.005 883.406 382.884 883.777 382.724V383.67C883.419 383.829 883.063 383.946 882.709 384.019C882.359 384.093 881.944 384.13 881.465 384.13C880.783 384.13 880.187 383.991 879.678 383.715C879.173 383.434 878.78 383.024 878.499 382.485C878.218 381.945 878.078 381.284 878.078 380.503C878.078 379.739 878.205 379.078 878.46 378.521C878.719 377.96 879.082 377.528 879.548 377.226C880.019 376.924 880.571 376.773 881.206 376.773ZM881.193 377.653C880.619 377.653 880.161 377.841 879.82 378.217C879.479 378.592 879.276 379.117 879.211 379.791H882.968C882.963 379.367 882.896 378.996 882.767 378.677C882.642 378.353 882.449 378.102 882.19 377.925C881.931 377.744 881.599 377.653 881.193 377.653ZM889.68 376.773C890.522 376.773 891.158 376.98 891.59 377.394C892.022 377.804 892.238 378.465 892.238 379.376V384H891.176V379.447C891.176 378.856 891.04 378.413 890.768 378.12C890.5 377.826 890.088 377.679 889.531 377.679C888.745 377.679 888.192 377.902 887.873 378.346C887.553 378.791 887.394 379.436 887.394 380.283V384H886.319V376.902H887.186L887.348 377.925H887.407C887.558 377.675 887.75 377.466 887.983 377.297C888.216 377.124 888.477 376.995 888.767 376.909C889.056 376.818 889.36 376.773 889.68 376.773ZM900.711 376.902V384H899.831L899.675 383.003H899.617C899.47 383.249 899.28 383.456 899.047 383.624C898.814 383.793 898.551 383.918 898.257 384C897.968 384.086 897.659 384.13 897.331 384.13C896.77 384.13 896.299 384.039 895.919 383.858C895.539 383.676 895.252 383.396 895.058 383.016C894.868 382.636 894.773 382.148 894.773 381.552V376.902H895.861V381.474C895.861 382.066 895.995 382.508 896.262 382.802C896.53 383.091 896.938 383.236 897.486 383.236C898.013 383.236 898.432 383.137 898.743 382.938C899.058 382.739 899.285 382.448 899.423 382.064C899.561 381.675 899.63 381.2 899.63 380.639V376.902H900.711ZM906.115 376.773C906.72 376.773 907.238 376.906 907.67 377.174C908.101 377.442 908.432 377.817 908.661 378.301C908.889 378.78 909.004 379.341 909.004 379.985V380.652H904.101C904.114 381.485 904.321 382.12 904.723 382.556C905.125 382.992 905.69 383.21 906.42 383.21C906.869 383.21 907.266 383.169 907.611 383.087C907.957 383.005 908.315 382.884 908.686 382.724V383.67C908.328 383.829 907.972 383.946 907.618 384.019C907.268 384.093 906.854 384.13 906.374 384.13C905.692 384.13 905.096 383.991 904.587 383.715C904.082 383.434 903.689 383.024 903.408 382.485C903.128 381.945 902.987 381.284 902.987 380.503C902.987 379.739 903.115 379.078 903.369 378.521C903.629 377.96 903.991 377.528 904.457 377.226C904.928 376.924 905.481 376.773 906.115 376.773ZM906.102 377.653C905.528 377.653 905.071 377.841 904.729 378.217C904.388 378.592 904.185 379.117 904.121 379.791H907.877C907.873 379.367 907.806 378.996 907.676 378.677C907.551 378.353 907.359 378.102 907.1 377.925C906.841 377.744 906.508 377.653 906.102 377.653Z" fill="#C3C3C3"/>
<circle cx="754.5" cy="369.5" r="17" stroke="#2D3C65"/>
<circle cx="754.5" cy="369.5" r="23" stroke="#2D3C65"/>
<line x1="753" y1="369" x2="753" y2="601" stroke="#E95A0C" stroke-width="2"/>
<circle cx="754.5" cy="369.5" r="9.5" fill="#E95A0C"/>
<path d="M1542.47 193.028V191.249C1541.76 191.237 1541.1 191.174 1540.5 191.059C1539.9 190.938 1539.38 190.782 1538.94 190.593V188.753C1539.38 188.961 1539.93 189.148 1540.58 189.315C1541.23 189.481 1541.86 189.576 1542.47 189.6V186.361C1541.64 186.079 1540.96 185.786 1540.44 185.481C1539.92 185.176 1539.54 184.822 1539.3 184.419C1539.05 184.01 1538.93 183.521 1538.93 182.951C1538.93 182.363 1539.08 181.86 1539.37 181.44C1539.67 181.014 1540.09 180.677 1540.62 180.429C1541.15 180.182 1541.77 180.035 1542.47 179.989V178.581H1543.6V179.963C1544.23 179.98 1544.82 180.052 1545.37 180.179C1545.91 180.3 1546.43 180.47 1546.93 180.688L1546.3 182.294C1545.87 182.122 1545.42 181.981 1544.95 181.871C1544.48 181.762 1544.03 181.687 1543.6 181.647V184.807C1544.3 185.037 1544.92 185.285 1545.47 185.55C1546.02 185.815 1546.45 186.148 1546.76 186.551C1547.08 186.949 1547.24 187.47 1547.24 188.114C1547.24 188.961 1546.93 189.66 1546.31 190.213C1545.69 190.759 1544.78 191.088 1543.6 191.197V193.028H1542.47ZM1543.6 189.53C1544.15 189.461 1544.56 189.317 1544.83 189.099C1545.1 188.874 1545.24 188.583 1545.24 188.227C1545.24 187.985 1545.18 187.78 1545.06 187.613C1544.95 187.447 1544.78 187.297 1544.54 187.164C1544.3 187.032 1543.99 186.903 1543.6 186.776V189.53ZM1542.47 184.384V181.681C1542.14 181.716 1541.86 181.785 1541.63 181.889C1541.4 181.992 1541.22 182.127 1541.11 182.294C1540.99 182.461 1540.94 182.66 1540.94 182.89C1540.94 183.144 1540.99 183.359 1541.09 183.538C1541.19 183.716 1541.36 183.872 1541.58 184.004C1541.81 184.137 1542.11 184.263 1542.47 184.384ZM1558.45 189.228H1556.74V192H1554.74V189.228H1549V187.691L1554.76 179.341H1556.74V187.544H1558.45V189.228ZM1554.74 187.544V184.41C1554.74 184.151 1554.74 183.889 1554.75 183.624C1554.76 183.354 1554.77 183.095 1554.78 182.847C1554.79 182.6 1554.8 182.372 1554.82 182.165C1554.83 181.952 1554.84 181.776 1554.84 181.638H1554.77C1554.66 181.868 1554.54 182.104 1554.41 182.346C1554.28 182.582 1554.14 182.813 1553.99 183.037L1550.88 187.544H1554.74ZM1560.46 190.929C1560.46 190.457 1560.58 190.126 1560.82 189.936C1561.07 189.741 1561.37 189.643 1561.72 189.643C1562.07 189.643 1562.37 189.741 1562.62 189.936C1562.87 190.126 1563 190.457 1563 190.929C1563 191.39 1562.87 191.724 1562.62 191.931C1562.37 192.132 1562.07 192.233 1561.72 192.233C1561.37 192.233 1561.07 192.132 1560.82 191.931C1560.58 191.724 1560.46 191.39 1560.46 190.929ZM1574.03 192H1565.48V190.472L1568.75 187.156C1569.38 186.511 1569.91 185.956 1570.31 185.489C1570.72 185.017 1571.03 184.571 1571.22 184.151C1571.42 183.731 1571.52 183.273 1571.52 182.778C1571.52 182.168 1571.35 181.707 1571 181.396C1570.65 181.08 1570.18 180.921 1569.61 180.921C1569.06 180.921 1568.55 181.031 1568.09 181.25C1567.63 181.463 1567.15 181.768 1566.65 182.165L1565.54 180.826C1565.89 180.527 1566.26 180.254 1566.66 180.006C1567.06 179.759 1567.51 179.563 1568.01 179.419C1568.5 179.269 1569.07 179.194 1569.7 179.194C1570.5 179.194 1571.19 179.338 1571.77 179.626C1572.36 179.908 1572.8 180.303 1573.11 180.809C1573.43 181.316 1573.59 181.906 1573.59 182.579C1573.59 183.259 1573.45 183.886 1573.18 184.462C1572.91 185.037 1572.52 185.607 1572.02 186.171C1571.52 186.73 1570.93 187.337 1570.24 187.993L1568.05 190.126V190.221H1574.03V192ZM1584.19 182.26C1584.19 182.83 1584.08 183.325 1583.85 183.745C1583.62 184.165 1583.3 184.511 1582.9 184.781C1582.5 185.046 1582.04 185.236 1581.52 185.351V185.412C1582.53 185.538 1583.28 185.855 1583.8 186.361C1584.32 186.868 1584.57 187.539 1584.57 188.373C1584.57 189.104 1584.4 189.758 1584.05 190.333C1583.7 190.903 1583.16 191.352 1582.43 191.681C1581.71 192.009 1580.78 192.173 1579.64 192.173C1578.95 192.173 1578.31 192.118 1577.73 192.009C1577.15 191.899 1576.59 191.724 1576.07 191.482V189.677C1576.6 189.942 1577.17 190.146 1577.78 190.29C1578.38 190.434 1578.96 190.506 1579.5 190.506C1580.55 190.506 1581.3 190.31 1581.75 189.919C1582.2 189.522 1582.42 188.975 1582.42 188.278C1582.42 187.829 1582.31 187.461 1582.07 187.173C1581.84 186.885 1581.48 186.669 1580.99 186.525C1580.51 186.382 1579.88 186.31 1579.12 186.31H1578V184.678H1579.13C1579.86 184.678 1580.44 184.591 1580.89 184.419C1581.33 184.24 1581.65 183.995 1581.85 183.685C1582.05 183.374 1582.15 183.011 1582.15 182.597C1582.15 182.056 1581.97 181.635 1581.62 181.336C1581.27 181.031 1580.75 180.878 1580.06 180.878C1579.63 180.878 1579.24 180.927 1578.89 181.025C1578.55 181.123 1578.23 181.247 1577.93 181.396C1577.64 181.546 1577.36 181.707 1577.1 181.88L1576.12 180.472C1576.6 180.116 1577.17 179.813 1577.83 179.566C1578.49 179.318 1579.26 179.194 1580.14 179.194C1581.44 179.194 1582.44 179.474 1583.14 180.032C1583.84 180.585 1584.19 181.327 1584.19 182.26Z" fill="white"/>
<path d="M1546.84 203.773C1547.62 203.773 1548.21 203.978 1548.61 204.388C1549.01 204.794 1549.2 205.448 1549.2 206.35V211H1548.14V206.402C1548.14 205.828 1548.02 205.398 1547.77 205.113C1547.52 204.824 1547.15 204.679 1546.67 204.679C1545.98 204.679 1545.48 204.878 1545.17 205.275C1544.86 205.672 1544.7 206.257 1544.7 207.03V211H1543.63V206.402C1543.63 206.018 1543.58 205.698 1543.47 205.443C1543.36 205.189 1543.19 204.999 1542.97 204.874C1542.76 204.744 1542.48 204.679 1542.15 204.679C1541.68 204.679 1541.3 204.776 1541.02 204.971C1540.73 205.165 1540.53 205.454 1540.4 205.839C1540.27 206.218 1540.21 206.687 1540.21 207.244V211H1539.13V203.902H1540L1540.16 204.906H1540.22C1540.36 204.66 1540.54 204.453 1540.76 204.284C1540.97 204.116 1541.22 203.988 1541.48 203.902C1541.75 203.816 1542.04 203.773 1542.34 203.773C1542.88 203.773 1543.33 203.874 1543.69 204.077C1544.06 204.276 1544.33 204.58 1544.49 204.99H1544.55C1544.78 204.58 1545.1 204.276 1545.51 204.077C1545.91 203.874 1546.36 203.773 1546.84 203.773ZM1552.89 203.902V211H1551.81V203.902H1552.89ZM1552.36 201.247C1552.54 201.247 1552.69 201.305 1552.81 201.422C1552.94 201.534 1553.01 201.711 1553.01 201.953C1553.01 202.19 1552.94 202.367 1552.81 202.484C1552.69 202.6 1552.54 202.659 1552.36 202.659C1552.17 202.659 1552.02 202.6 1551.89 202.484C1551.77 202.367 1551.71 202.19 1551.71 201.953C1551.71 201.711 1551.77 201.534 1551.89 201.422C1552.02 201.305 1552.17 201.247 1552.36 201.247ZM1558.92 203.773C1559.77 203.773 1560.4 203.98 1560.83 204.394C1561.27 204.804 1561.48 205.465 1561.48 206.376V211H1560.42V206.447C1560.42 205.856 1560.28 205.413 1560.01 205.12C1559.74 204.826 1559.33 204.679 1558.77 204.679C1557.99 204.679 1557.44 204.902 1557.12 205.346C1556.8 205.791 1556.64 206.436 1556.64 207.283V211H1555.56V203.902H1556.43L1556.59 204.925H1556.65C1556.8 204.675 1556.99 204.466 1557.23 204.297C1557.46 204.124 1557.72 203.995 1558.01 203.909C1558.3 203.818 1558.6 203.773 1558.92 203.773ZM1565.17 203.902V211H1564.09V203.902H1565.17ZM1564.64 201.247C1564.82 201.247 1564.97 201.305 1565.1 201.422C1565.23 201.534 1565.29 201.711 1565.29 201.953C1565.29 202.19 1565.23 202.367 1565.1 202.484C1564.97 202.6 1564.82 202.659 1564.64 202.659C1564.46 202.659 1564.3 202.6 1564.18 202.484C1564.06 202.367 1564 202.19 1564 201.953C1564 201.711 1564.06 201.534 1564.18 201.422C1564.3 201.305 1564.46 201.247 1564.64 201.247ZM1575.55 203.773C1576.34 203.773 1576.92 203.978 1577.32 204.388C1577.72 204.794 1577.92 205.448 1577.92 206.35V211H1576.86V206.402C1576.86 205.828 1576.73 205.398 1576.48 205.113C1576.23 204.824 1575.87 204.679 1575.38 204.679C1574.69 204.679 1574.19 204.878 1573.88 205.275C1573.57 205.672 1573.42 206.257 1573.42 207.03V211H1572.35V206.402C1572.35 206.018 1572.29 205.698 1572.18 205.443C1572.07 205.189 1571.91 204.999 1571.69 204.874C1571.47 204.744 1571.2 204.679 1570.86 204.679C1570.39 204.679 1570.02 204.776 1569.73 204.971C1569.45 205.165 1569.24 205.454 1569.11 205.839C1568.98 206.218 1568.92 206.687 1568.92 207.244V211H1567.85V203.902H1568.71L1568.88 204.906H1568.94C1569.08 204.66 1569.26 204.453 1569.47 204.284C1569.69 204.116 1569.93 203.988 1570.2 203.902C1570.47 203.816 1570.75 203.773 1571.05 203.773C1571.59 203.773 1572.04 203.874 1572.41 204.077C1572.77 204.276 1573.04 204.58 1573.2 204.99H1573.26C1573.49 204.58 1573.81 204.276 1574.22 204.077C1574.63 203.874 1575.07 203.773 1575.55 203.773ZM1583.18 203.786C1584.03 203.786 1584.65 203.976 1585.06 204.355C1585.47 204.735 1585.68 205.342 1585.68 206.175V211H1584.9L1584.69 209.951H1584.64C1584.44 210.21 1584.23 210.428 1584.01 210.605C1583.8 210.778 1583.55 210.909 1583.26 211C1582.98 211.086 1582.64 211.13 1582.23 211.13C1581.8 211.13 1581.41 211.054 1581.07 210.903C1580.74 210.752 1580.48 210.523 1580.28 210.216C1580.09 209.91 1580 209.521 1580 209.051C1580 208.343 1580.28 207.799 1580.84 207.419C1581.4 207.039 1582.26 206.832 1583.41 206.797L1584.63 206.745V206.311C1584.63 205.698 1584.5 205.269 1584.23 205.023C1583.97 204.776 1583.6 204.653 1583.12 204.653C1582.75 204.653 1582.4 204.707 1582.06 204.815C1581.72 204.923 1581.4 205.051 1581.1 205.197L1580.77 204.381C1581.09 204.217 1581.46 204.077 1581.87 203.96C1582.29 203.844 1582.72 203.786 1583.18 203.786ZM1584.62 207.503L1583.54 207.548C1582.65 207.583 1582.03 207.727 1581.66 207.982C1581.3 208.237 1581.12 208.597 1581.12 209.064C1581.12 209.469 1581.24 209.77 1581.49 209.964C1581.73 210.158 1582.06 210.255 1582.47 210.255C1583.1 210.255 1583.61 210.08 1584.01 209.731C1584.42 209.381 1584.62 208.856 1584.62 208.157V207.503ZM1589.37 211H1588.29V200.923H1589.37V211ZM1599.22 203.773C1600.11 203.773 1600.81 204.077 1601.34 204.686C1601.87 205.295 1602.13 206.21 1602.13 207.432C1602.13 208.239 1602.01 208.917 1601.77 209.465C1601.53 210.013 1601.18 210.428 1600.74 210.709C1600.31 210.989 1599.79 211.13 1599.2 211.13C1598.82 211.13 1598.49 211.08 1598.21 210.981C1597.92 210.881 1597.68 210.747 1597.47 210.579C1597.27 210.411 1597.1 210.227 1596.97 210.029H1596.89C1596.9 210.197 1596.92 210.4 1596.94 210.637C1596.96 210.875 1596.97 211.082 1596.97 211.259V214.173H1595.89V203.902H1596.77L1596.92 204.951H1596.97C1597.11 204.735 1597.28 204.539 1597.47 204.362C1597.67 204.181 1597.91 204.038 1598.2 203.935C1598.49 203.827 1598.83 203.773 1599.22 203.773ZM1599.03 204.679C1598.54 204.679 1598.15 204.774 1597.84 204.964C1597.55 205.154 1597.33 205.439 1597.19 205.819C1597.05 206.195 1596.98 206.667 1596.97 207.237V207.445C1596.97 208.045 1597.03 208.552 1597.16 208.966C1597.3 209.381 1597.51 209.696 1597.82 209.912C1598.12 210.128 1598.53 210.236 1599.05 210.236C1599.49 210.236 1599.85 210.117 1600.15 209.88C1600.44 209.642 1600.66 209.312 1600.8 208.889C1600.95 208.461 1601.02 207.971 1601.02 207.419C1601.02 206.581 1600.86 205.916 1600.53 205.424C1600.21 204.928 1599.71 204.679 1599.03 204.679ZM1607.63 203.773C1607.77 203.773 1607.92 203.781 1608.08 203.799C1608.23 203.811 1608.37 203.831 1608.49 203.857L1608.36 204.854C1608.24 204.824 1608.11 204.8 1607.97 204.783C1607.83 204.766 1607.69 204.757 1607.57 204.757C1607.28 204.757 1607.01 204.815 1606.76 204.932C1606.51 205.044 1606.29 205.208 1606.1 205.424C1605.91 205.636 1605.76 205.892 1605.65 206.195C1605.54 206.493 1605.49 206.825 1605.49 207.192V211H1604.41V203.902H1605.3L1605.42 205.21H1605.46C1605.61 204.947 1605.79 204.707 1605.99 204.491C1606.2 204.271 1606.44 204.096 1606.71 203.967C1606.99 203.837 1607.29 203.773 1607.63 203.773ZM1611.31 203.902V211H1610.23V203.902H1611.31ZM1610.78 201.247C1610.96 201.247 1611.11 201.305 1611.23 201.422C1611.36 201.534 1611.43 201.711 1611.43 201.953C1611.43 202.19 1611.36 202.367 1611.23 202.484C1611.11 202.6 1610.96 202.659 1610.78 202.659C1610.6 202.659 1610.44 202.6 1610.32 202.484C1610.19 202.367 1610.13 202.19 1610.13 201.953C1610.13 201.711 1610.19 201.534 1610.32 201.422C1610.44 201.305 1610.6 201.247 1610.78 201.247ZM1616.83 211.13C1616.19 211.13 1615.62 210.998 1615.14 210.734C1614.65 210.471 1614.27 210.07 1614 209.53C1613.72 208.99 1613.59 208.31 1613.59 207.49C1613.59 206.631 1613.73 205.929 1614.02 205.385C1614.31 204.837 1614.7 204.431 1615.21 204.168C1615.71 203.904 1616.29 203.773 1616.93 203.773C1617.28 203.773 1617.63 203.809 1617.95 203.883C1618.29 203.952 1618.56 204.04 1618.77 204.148L1618.45 205.048C1618.23 204.962 1617.98 204.884 1617.69 204.815C1617.41 204.746 1617.15 204.712 1616.9 204.712C1616.41 204.712 1616 204.817 1615.67 205.029C1615.35 205.241 1615.11 205.551 1614.94 205.962C1614.78 206.372 1614.7 206.877 1614.7 207.477C1614.7 208.051 1614.78 208.541 1614.94 208.947C1615.1 209.353 1615.33 209.664 1615.64 209.88C1615.96 210.091 1616.35 210.197 1616.82 210.197C1617.2 210.197 1617.53 210.158 1617.84 210.08C1618.14 209.998 1618.41 209.903 1618.66 209.795V210.754C1618.42 210.875 1618.16 210.968 1617.86 211.032C1617.57 211.097 1617.23 211.13 1616.83 211.13ZM1623.47 203.773C1624.08 203.773 1624.6 203.906 1625.03 204.174C1625.46 204.442 1625.79 204.817 1626.02 205.301C1626.25 205.78 1626.36 206.341 1626.36 206.985V207.652H1621.46C1621.47 208.485 1621.68 209.12 1622.08 209.556C1622.48 209.992 1623.05 210.21 1623.78 210.21C1624.23 210.21 1624.62 210.169 1624.97 210.087C1625.32 210.005 1625.67 209.884 1626.05 209.724V210.67C1625.69 210.829 1625.33 210.946 1624.98 211.019C1624.63 211.093 1624.21 211.13 1623.73 211.13C1623.05 211.13 1622.46 210.991 1621.95 210.715C1621.44 210.434 1621.05 210.024 1620.77 209.485C1620.49 208.945 1620.35 208.284 1620.35 207.503C1620.35 206.739 1620.47 206.078 1620.73 205.521C1620.99 204.96 1621.35 204.528 1621.82 204.226C1622.29 203.924 1622.84 203.773 1623.47 203.773ZM1623.46 204.653C1622.89 204.653 1622.43 204.841 1622.09 205.217C1621.75 205.592 1621.54 206.117 1621.48 206.791H1625.24C1625.23 206.367 1625.16 205.996 1625.03 205.677C1624.91 205.353 1624.72 205.102 1624.46 204.925C1624.2 204.744 1623.87 204.653 1623.46 204.653Z" fill="#C3C3C3"/>
<circle cx="1498.5" cy="196.5" r="17" stroke="#2D3C65"/>
<circle cx="1498.5" cy="196.5" r="23" stroke="#2D3C65"/>
<line x1="1497" y1="196" x2="1497" y2="414" stroke="#E95A0C" stroke-width="2"/>
<circle cx="1498.5" cy="196.5" r="9.5" fill="#E95A0C"/>
<path d="M1234.8 16.2282H1233.09V19H1231.09V16.2282H1225.35V14.6912L1231.11 6.34128H1233.09V14.5444H1234.8V16.2282ZM1231.09 14.5444V11.41C1231.09 11.1509 1231.09 10.889 1231.1 10.6242C1231.11 10.3536 1231.12 10.0946 1231.13 9.84704C1231.14 9.59951 1231.15 9.37212 1231.17 9.16489C1231.18 8.95189 1231.19 8.77632 1231.19 8.63816H1231.12C1231.01 8.86842 1230.89 9.10444 1230.76 9.34622C1230.63 9.58224 1230.49 9.8125 1230.34 10.037L1227.23 14.5444H1231.09ZM1236.81 17.9293C1236.81 17.4572 1236.93 17.1262 1237.17 16.9363C1237.42 16.7405 1237.72 16.6427 1238.07 16.6427C1238.42 16.6427 1238.72 16.7405 1238.97 16.9363C1239.22 17.1262 1239.35 17.4572 1239.35 17.9293C1239.35 18.3898 1239.22 18.7237 1238.97 18.9309C1238.72 19.1324 1238.42 19.2331 1238.07 19.2331C1237.72 19.2331 1237.42 19.1324 1237.17 18.9309C1236.93 18.7237 1236.81 18.3898 1236.81 17.9293ZM1250.38 19H1241.83V17.4716L1245.1 14.1558C1245.73 13.5111 1246.26 12.9556 1246.66 12.4893C1247.07 12.0173 1247.37 11.5711 1247.57 11.1509C1247.77 10.7307 1247.87 10.273 1247.87 9.77796C1247.87 9.16776 1247.7 8.70724 1247.35 8.39638C1246.99 8.07977 1246.53 7.92146 1245.96 7.92146C1245.41 7.92146 1244.9 8.03084 1244.44 8.24959C1243.98 8.46258 1243.5 8.76768 1243 9.16489L1241.89 7.82648C1242.24 7.52714 1242.61 7.2537 1243.01 7.00617C1243.41 6.75864 1243.86 6.56291 1244.36 6.419C1244.85 6.26933 1245.42 6.19449 1246.05 6.19449C1246.85 6.19449 1247.54 6.33841 1248.12 6.62623C1248.7 6.90831 1249.15 7.30263 1249.46 7.80921C1249.78 8.31579 1249.94 8.90584 1249.94 9.57936C1249.94 10.2586 1249.8 10.8861 1249.53 11.4618C1249.26 12.0374 1248.87 12.6073 1248.37 13.1715C1247.87 13.7299 1247.28 14.3372 1246.59 14.9934L1244.4 17.1262V17.2212H1250.38V19ZM1260.54 9.25987C1260.54 9.82977 1260.43 10.3248 1260.2 10.7451C1259.97 11.1653 1259.65 11.5107 1259.25 11.7813C1258.85 12.0461 1258.39 12.236 1257.87 12.3512V12.4116C1258.87 12.5382 1259.63 12.8549 1260.15 13.3614C1260.66 13.868 1260.92 14.5387 1260.92 15.3734C1260.92 16.1044 1260.75 16.7578 1260.4 17.3335C1260.05 17.9034 1259.51 18.3524 1258.78 18.6805C1258.06 19.0086 1257.12 19.1727 1255.98 19.1727C1255.3 19.1727 1254.66 19.118 1254.08 19.0086C1253.49 18.8993 1252.94 18.7237 1252.42 18.4819V16.6772C1252.95 16.942 1253.52 17.1464 1254.13 17.2903C1254.73 17.4342 1255.31 17.5062 1255.85 17.5062C1256.9 17.5062 1257.65 17.3104 1258.1 16.919C1258.55 16.5218 1258.77 15.9749 1258.77 15.2784C1258.77 14.8294 1258.66 14.4609 1258.42 14.1731C1258.19 13.8853 1257.83 13.6694 1257.34 13.5255C1256.86 13.3816 1256.23 13.3096 1255.47 13.3096H1254.35V11.6776H1255.48C1256.21 11.6776 1256.79 11.5913 1257.24 11.4186C1257.68 11.2401 1258 10.9955 1258.2 10.6846C1258.4 10.3738 1258.5 10.0111 1258.5 9.59663C1258.5 9.05551 1258.32 8.63528 1257.97 8.33594C1257.62 8.03084 1257.1 7.87829 1256.41 7.87829C1255.98 7.87829 1255.59 7.92722 1255.24 8.02508C1254.9 8.12294 1254.58 8.24671 1254.28 8.39638C1253.99 8.54605 1253.71 8.70724 1253.45 8.87993L1252.47 7.47245C1252.95 7.11554 1253.52 6.81332 1254.18 6.56579C1254.84 6.31826 1255.61 6.19449 1256.49 6.19449C1257.79 6.19449 1258.79 6.47368 1259.49 7.03207C1260.19 7.5847 1260.54 8.3273 1260.54 9.25987ZM1265.82 6.19449C1266.75 6.19449 1267.45 6.53989 1267.93 7.23067C1268.41 7.91571 1268.65 8.88569 1268.65 10.1406C1268.65 11.3898 1268.42 12.3655 1267.96 13.0678C1267.5 13.7701 1266.79 14.1213 1265.82 14.1213C1264.92 14.1213 1264.23 13.7701 1263.76 13.0678C1263.29 12.3655 1263.05 11.3898 1263.05 10.1406C1263.05 8.88569 1263.27 7.91571 1263.72 7.23067C1264.17 6.53989 1264.87 6.19449 1265.82 6.19449ZM1265.83 7.61061C1265.46 7.61061 1265.18 7.82072 1265 8.24095C1264.83 8.66118 1264.74 9.29729 1264.74 10.1493C1264.74 10.9955 1264.83 11.6345 1265 12.0662C1265.18 12.4922 1265.46 12.7052 1265.83 12.7052C1266.21 12.7052 1266.49 12.4922 1266.68 12.0662C1266.87 11.6402 1266.96 11.0012 1266.96 10.1493C1266.96 9.30304 1266.87 8.66982 1266.69 8.24959C1266.5 7.8236 1266.22 7.61061 1265.83 7.61061ZM1274.3 6.37582L1267.3 19H1265.63L1272.64 6.37582H1274.3ZM1274.07 11.2459C1275 11.2459 1275.7 11.5913 1276.18 12.2821C1276.66 12.9671 1276.9 13.9371 1276.9 15.192C1276.9 16.4354 1276.67 17.4083 1276.21 18.1106C1275.76 18.8129 1275.04 19.1641 1274.07 19.1641C1273.17 19.1641 1272.48 18.8129 1272.01 18.1106C1271.53 17.4083 1271.3 16.4354 1271.3 15.192C1271.3 13.9371 1271.52 12.9671 1271.96 12.2821C1272.41 11.5913 1273.11 11.2459 1274.07 11.2459ZM1274.08 12.662C1273.7 12.662 1273.43 12.8721 1273.25 13.2924C1273.08 13.7126 1272.99 14.3487 1272.99 15.2007C1272.99 16.0469 1273.08 16.6859 1273.25 17.1176C1273.43 17.5436 1273.7 17.7566 1274.08 17.7566C1274.46 17.7566 1274.75 17.5465 1274.93 17.1262C1275.12 16.7002 1275.21 16.0584 1275.21 15.2007C1275.21 14.3544 1275.12 13.7212 1274.93 13.301C1274.75 12.875 1274.46 12.662 1274.08 12.662Z" fill="white"/>
<path d="M1228.87 30.7726C1229.47 30.7726 1229.99 30.9065 1230.42 31.1741C1230.85 31.4418 1231.18 31.8174 1231.41 32.301C1231.64 32.7802 1231.75 33.3415 1231.75 33.9848V34.6518H1226.85C1226.87 35.4851 1227.07 36.1198 1227.47 36.5558C1227.88 36.9919 1228.44 37.2099 1229.17 37.2099C1229.62 37.2099 1230.02 37.1689 1230.36 37.0869C1230.71 37.0048 1231.07 36.8839 1231.44 36.7242V37.6697C1231.08 37.8295 1230.72 37.946 1230.37 38.0194C1230.02 38.0928 1229.6 38.1295 1229.13 38.1295C1228.44 38.1295 1227.85 37.9914 1227.34 37.715C1226.83 37.4344 1226.44 37.0243 1226.16 36.4846C1225.88 35.9449 1225.74 35.2843 1225.74 34.5029C1225.74 33.7387 1225.87 33.0781 1226.12 32.5212C1226.38 31.9599 1226.74 31.5282 1227.21 31.2259C1227.68 30.9237 1228.23 30.7726 1228.87 30.7726ZM1228.85 31.6534C1228.28 31.6534 1227.82 31.8412 1227.48 32.2168C1227.14 32.5924 1226.94 33.117 1226.87 33.7905H1230.63C1230.62 33.3674 1230.56 32.9961 1230.43 32.6766C1230.3 32.3528 1230.11 32.1024 1229.85 31.9254C1229.59 31.744 1229.26 31.6534 1228.85 31.6534ZM1235.67 34.3669L1233.21 30.9021H1234.45L1236.32 33.6351L1238.18 30.9021H1239.4L1236.94 34.3669L1239.54 38H1238.3L1236.32 35.1052L1234.32 38H1233.1L1235.67 34.3669ZM1244.65 30.7726C1245.54 30.7726 1246.25 31.077 1246.77 31.6858C1247.3 32.2945 1247.56 33.2098 1247.56 34.4316C1247.56 35.239 1247.44 35.9168 1247.2 36.4652C1246.96 37.0135 1246.62 37.4279 1246.18 37.7086C1245.74 37.9892 1245.22 38.1295 1244.63 38.1295C1244.25 38.1295 1243.92 38.0799 1243.64 37.9806C1243.35 37.8813 1243.11 37.7474 1242.91 37.5791C1242.7 37.4107 1242.53 37.2272 1242.4 37.0286H1242.32C1242.34 37.197 1242.35 37.3999 1242.37 37.6373C1242.39 37.8748 1242.4 38.082 1242.4 38.259V41.1733H1241.32V30.9021H1242.21L1242.35 31.9513H1242.4C1242.54 31.7354 1242.71 31.539 1242.91 31.3619C1243.1 31.1806 1243.35 31.0381 1243.63 30.9345C1243.92 30.8266 1244.26 30.7726 1244.65 30.7726ZM1244.47 31.6793C1243.97 31.6793 1243.58 31.7743 1243.27 31.9642C1242.98 32.1542 1242.76 32.4391 1242.62 32.8191C1242.48 33.1947 1242.41 33.6675 1242.4 34.2374V34.4446C1242.4 35.0447 1242.47 35.552 1242.59 35.9665C1242.73 36.381 1242.95 36.6961 1243.25 36.912C1243.56 37.1279 1243.97 37.2358 1244.48 37.2358C1244.92 37.2358 1245.29 37.1171 1245.58 36.8796C1245.87 36.6422 1246.09 36.3119 1246.23 35.8888C1246.38 35.4613 1246.45 34.9713 1246.45 34.4187C1246.45 33.5811 1246.29 32.9162 1245.96 32.424C1245.64 31.9275 1245.14 31.6793 1244.47 31.6793ZM1252.57 30.7726C1253.18 30.7726 1253.69 30.9065 1254.13 31.1741C1254.56 31.4418 1254.89 31.8174 1255.12 32.301C1255.34 32.7802 1255.46 33.3415 1255.46 33.9848V34.6518H1250.56C1250.57 35.4851 1250.78 36.1198 1251.18 36.5558C1251.58 36.9919 1252.15 37.2099 1252.88 37.2099C1253.32 37.2099 1253.72 37.1689 1254.07 37.0869C1254.41 37.0048 1254.77 36.8839 1255.14 36.7242V37.6697C1254.78 37.8295 1254.43 37.946 1254.07 38.0194C1253.72 38.0928 1253.31 38.1295 1252.83 38.1295C1252.15 38.1295 1251.55 37.9914 1251.04 37.715C1250.54 37.4344 1250.14 37.0243 1249.86 36.4846C1249.58 35.9449 1249.44 35.2843 1249.44 34.5029C1249.44 33.7387 1249.57 33.0781 1249.83 32.5212C1250.08 31.9599 1250.45 31.5282 1250.91 31.2259C1251.38 30.9237 1251.94 30.7726 1252.57 30.7726ZM1252.56 31.6534C1251.98 31.6534 1251.53 31.8412 1251.19 32.2168C1250.84 32.5924 1250.64 33.117 1250.58 33.7905H1254.33C1254.33 33.3674 1254.26 32.9961 1254.13 32.6766C1254.01 32.3528 1253.81 32.1024 1253.56 31.9254C1253.3 31.744 1252.96 31.6534 1252.56 31.6534ZM1260.53 38.1295C1259.89 38.1295 1259.32 37.9978 1258.84 37.7345C1258.35 37.4711 1257.97 37.0696 1257.7 36.5299C1257.42 35.9902 1257.29 35.3102 1257.29 34.4899C1257.29 33.6308 1257.43 32.9292 1257.72 32.3852C1258.01 31.8369 1258.4 31.431 1258.91 31.1677C1259.41 30.9043 1259.99 30.7726 1260.63 30.7726C1260.98 30.7726 1261.33 30.8093 1261.65 30.8827C1261.99 30.9518 1262.26 31.0403 1262.47 31.1482L1262.15 32.0484C1261.93 31.9621 1261.68 31.8844 1261.39 31.8153C1261.11 31.7462 1260.85 31.7117 1260.6 31.7117C1260.11 31.7117 1259.7 31.8174 1259.37 32.029C1259.05 32.2405 1258.81 32.5514 1258.64 32.9616C1258.48 33.3717 1258.4 33.8769 1258.4 34.477C1258.4 35.0512 1258.48 35.5412 1258.64 35.9471C1258.8 36.3529 1259.03 36.6638 1259.34 36.8796C1259.66 37.0912 1260.05 37.197 1260.52 37.197C1260.9 37.197 1261.23 37.1581 1261.54 37.0804C1261.84 36.9984 1262.11 36.9034 1262.36 36.7954V37.7539C1262.12 37.8748 1261.86 37.9676 1261.56 38.0324C1261.27 38.0971 1260.93 38.1295 1260.53 38.1295ZM1266.73 37.2488C1266.91 37.2488 1267.09 37.2337 1267.28 37.2034C1267.46 37.1732 1267.61 37.1365 1267.73 37.0933V37.9288C1267.61 37.9849 1267.43 38.0324 1267.21 38.0712C1266.99 38.1101 1266.77 38.1295 1266.56 38.1295C1266.18 38.1295 1265.84 38.0648 1265.54 37.9352C1265.23 37.8014 1264.98 37.5769 1264.8 37.2617C1264.62 36.9465 1264.53 36.5105 1264.53 35.9535V31.744H1263.51V31.2195L1264.53 30.7985L1264.96 29.2572H1265.61V30.9021H1267.69V31.744H1265.61V35.9212C1265.61 36.3659 1265.71 36.6983 1265.91 36.9185C1266.12 37.1387 1266.39 37.2488 1266.73 37.2488ZM1272.3 30.7726C1272.9 30.7726 1273.42 30.9065 1273.85 31.1741C1274.29 31.4418 1274.62 31.8174 1274.84 32.301C1275.07 32.7802 1275.19 33.3415 1275.19 33.9848V34.6518H1270.29C1270.3 35.4851 1270.51 36.1198 1270.91 36.5558C1271.31 36.9919 1271.87 37.2099 1272.6 37.2099C1273.05 37.2099 1273.45 37.1689 1273.8 37.0869C1274.14 37.0048 1274.5 36.8839 1274.87 36.7242V37.6697C1274.51 37.8295 1274.16 37.946 1273.8 38.0194C1273.45 38.0928 1273.04 38.1295 1272.56 38.1295C1271.88 38.1295 1271.28 37.9914 1270.77 37.715C1270.27 37.4344 1269.87 37.0243 1269.59 36.4846C1269.31 35.9449 1269.17 35.2843 1269.17 34.5029C1269.17 33.7387 1269.3 33.0781 1269.55 32.5212C1269.81 31.9599 1270.18 31.5282 1270.64 31.2259C1271.11 30.9237 1271.66 30.7726 1272.3 30.7726ZM1272.29 31.6534C1271.71 31.6534 1271.25 31.8412 1270.91 32.2168C1270.57 32.5924 1270.37 33.117 1270.3 33.7905H1274.06C1274.06 33.3674 1273.99 32.9961 1273.86 32.6766C1273.74 32.3528 1273.54 32.1024 1273.28 31.9254C1273.02 31.744 1272.69 31.6534 1272.29 31.6534ZM1279.94 38.1295C1279.04 38.1295 1278.33 37.823 1277.8 37.2099C1277.28 36.5968 1277.02 35.6859 1277.02 34.477C1277.02 33.2551 1277.28 32.3334 1277.82 31.7117C1278.36 31.0856 1279.07 30.7726 1279.96 30.7726C1280.33 30.7726 1280.66 30.8223 1280.94 30.9216C1281.22 31.0209 1281.46 31.1547 1281.67 31.3231C1281.87 31.4872 1282.04 31.675 1282.18 31.8865H1282.26C1282.24 31.7527 1282.22 31.5692 1282.2 31.336C1282.19 31.1029 1282.18 30.9129 1282.18 30.7661V27.9231H1283.25V38H1282.39L1282.22 36.9897H1282.18C1282.04 37.2013 1281.87 37.3934 1281.67 37.5661C1281.46 37.7388 1281.22 37.877 1280.94 37.9806C1280.65 38.0799 1280.32 38.1295 1279.94 38.1295ZM1280.11 37.2358C1280.87 37.2358 1281.4 37.0199 1281.72 36.5882C1282.03 36.1565 1282.19 35.5153 1282.19 34.6648V34.4705C1282.19 33.5682 1282.04 32.8752 1281.74 32.3917C1281.44 31.9081 1280.9 31.6663 1280.11 31.6663C1279.45 31.6663 1278.95 31.9211 1278.62 32.4305C1278.29 32.9357 1278.13 33.6264 1278.13 34.5029C1278.13 35.375 1278.29 36.0485 1278.62 36.5234C1278.94 36.9984 1279.44 37.2358 1280.11 37.2358ZM1291.76 41.1863C1290.82 41.1863 1290.1 41.0114 1289.6 40.6617C1289.09 40.3163 1288.84 39.8306 1288.84 39.2046C1288.84 38.7599 1288.98 38.3799 1289.26 38.0648C1289.55 37.7496 1289.94 37.5402 1290.44 37.4366C1290.26 37.3502 1290.1 37.2207 1289.96 37.048C1289.83 36.8753 1289.77 36.6767 1289.77 36.4522C1289.77 36.1932 1289.84 35.9665 1289.98 35.7722C1290.13 35.5736 1290.35 35.3836 1290.65 35.2023C1290.28 35.0512 1289.97 34.7965 1289.74 34.4381C1289.51 34.0755 1289.4 33.6545 1289.4 33.1753C1289.4 32.6658 1289.5 32.2319 1289.72 31.8736C1289.93 31.5109 1290.23 31.2346 1290.64 31.0446C1291.04 30.8546 1291.52 30.7597 1292.09 30.7597C1292.22 30.7597 1292.34 30.7661 1292.47 30.7791C1292.6 30.7877 1292.72 30.8028 1292.84 30.8244C1292.95 30.8417 1293.06 30.8633 1293.14 30.8892H1295.58V31.5821L1294.27 31.744C1294.4 31.9124 1294.51 32.1153 1294.59 32.3528C1294.68 32.5903 1294.72 32.8536 1294.72 33.1429C1294.72 33.8509 1294.48 34.4144 1294 34.8332C1293.52 35.2476 1292.87 35.4549 1292.03 35.4549C1291.83 35.4549 1291.63 35.4376 1291.42 35.4031C1291.21 35.5196 1291.05 35.6492 1290.93 35.7916C1290.83 35.9341 1290.77 36.0982 1290.77 36.2838C1290.77 36.422 1290.81 36.5321 1290.89 36.6141C1290.98 36.6961 1291.1 36.7566 1291.26 36.7954C1291.42 36.83 1291.62 36.8472 1291.84 36.8472H1293.09C1293.86 36.8472 1294.45 37.0091 1294.86 37.333C1295.28 37.6568 1295.49 38.1295 1295.49 38.7512C1295.49 39.537 1295.17 40.1393 1294.53 40.5581C1293.89 40.9769 1292.96 41.1863 1291.76 41.1863ZM1291.79 40.3444C1292.38 40.3444 1292.86 40.2839 1293.25 40.163C1293.63 40.0465 1293.92 39.8759 1294.11 39.6514C1294.31 39.4312 1294.4 39.1679 1294.4 38.8613C1294.4 38.5764 1294.34 38.3605 1294.21 38.2137C1294.08 38.0712 1293.89 37.9763 1293.64 37.9288C1293.39 37.877 1293.08 37.851 1292.72 37.851H1291.49C1291.17 37.851 1290.89 37.9007 1290.65 38C1290.42 38.0993 1290.23 38.2461 1290.1 38.4404C1289.98 38.6347 1289.92 38.8764 1289.92 39.1657C1289.92 39.55 1290.08 39.8414 1290.4 40.04C1290.73 40.2429 1291.19 40.3444 1291.79 40.3444ZM1292.07 34.6713C1292.58 34.6713 1292.97 34.5417 1293.23 34.2827C1293.49 34.0236 1293.61 33.6459 1293.61 33.1494C1293.61 32.6183 1293.48 32.2211 1293.22 31.9578C1292.96 31.6901 1292.57 31.5562 1292.05 31.5562C1291.56 31.5562 1291.18 31.6944 1290.91 31.9707C1290.65 32.2427 1290.52 32.6421 1290.52 33.1688C1290.52 33.6523 1290.65 34.0236 1290.92 34.2827C1291.19 34.5417 1291.57 34.6713 1292.07 34.6713ZM1300.6 30.7726C1300.74 30.7726 1300.89 30.7813 1301.05 30.7985C1301.2 30.8115 1301.34 30.8309 1301.46 30.8568L1301.32 31.8541C1301.21 31.8239 1301.08 31.8002 1300.94 31.7829C1300.79 31.7656 1300.66 31.757 1300.53 31.757C1300.25 31.757 1299.98 31.8153 1299.72 31.9318C1299.47 32.0441 1299.25 32.2082 1299.06 32.424C1298.87 32.6356 1298.72 32.8925 1298.62 33.1947C1298.51 33.4926 1298.46 33.825 1298.46 34.192V38H1297.37V30.9021H1298.27L1298.38 32.2103H1298.43C1298.58 31.947 1298.75 31.7073 1298.96 31.4915C1299.17 31.2713 1299.41 31.0964 1299.68 30.9669C1299.96 30.8374 1300.26 30.7726 1300.6 30.7726ZM1309.32 34.4381C1309.32 35.021 1309.24 35.5412 1309.09 35.9989C1308.94 36.4565 1308.72 36.8429 1308.44 37.1581C1308.15 37.4733 1307.81 37.715 1307.4 37.8834C1307 38.0475 1306.54 38.1295 1306.04 38.1295C1305.56 38.1295 1305.12 38.0475 1304.73 37.8834C1304.33 37.715 1303.99 37.4733 1303.7 37.1581C1303.42 36.8429 1303.2 36.4565 1303.04 35.9989C1302.88 35.5412 1302.8 35.021 1302.8 34.4381C1302.8 33.661 1302.94 33.0004 1303.2 32.4564C1303.46 31.9081 1303.84 31.4915 1304.33 31.2065C1304.82 30.9172 1305.4 30.7726 1306.08 30.7726C1306.73 30.7726 1307.29 30.9172 1307.78 31.2065C1308.26 31.4958 1308.64 31.9146 1308.91 32.4629C1309.18 33.0069 1309.32 33.6653 1309.32 34.4381ZM1303.92 34.4381C1303.92 35.008 1303.99 35.5024 1304.14 35.9212C1304.3 36.3399 1304.53 36.6638 1304.84 36.8926C1305.16 37.1214 1305.56 37.2358 1306.06 37.2358C1306.55 37.2358 1306.96 37.1214 1307.27 36.8926C1307.59 36.6638 1307.83 36.3399 1307.98 35.9212C1308.13 35.5024 1308.2 35.008 1308.2 34.4381C1308.2 33.8725 1308.13 33.3847 1307.98 32.9745C1307.83 32.56 1307.59 32.2405 1307.28 32.016C1306.96 31.7915 1306.56 31.6793 1306.05 31.6793C1305.32 31.6793 1304.77 31.9232 1304.43 32.4111C1304.09 32.899 1303.92 33.5746 1303.92 34.4381ZM1317.35 37.987L1316.09 33.8553C1316.03 33.6782 1315.98 33.5056 1315.93 33.3372C1315.88 33.1645 1315.83 33.0004 1315.79 32.845C1315.75 32.6852 1315.72 32.5384 1315.68 32.4046C1315.65 32.2664 1315.62 32.1477 1315.6 32.0484H1315.56C1315.54 32.1477 1315.52 32.2664 1315.49 32.4046C1315.46 32.5384 1315.42 32.6852 1315.38 32.845C1315.34 33.0047 1315.29 33.1731 1315.25 33.3501C1315.2 33.5228 1315.15 33.6977 1315.09 33.8747L1313.76 37.987H1312.55L1310.6 30.8892H1311.71L1312.73 34.8073C1312.8 35.0663 1312.87 35.3232 1312.93 35.5779C1312.99 35.8283 1313.05 36.0658 1313.09 36.2903C1313.14 36.5105 1313.17 36.7026 1313.19 36.8667H1313.25C1313.27 36.7587 1313.3 36.6292 1313.33 36.4781C1313.36 36.327 1313.4 36.1672 1313.44 35.9989C1313.48 35.8262 1313.53 35.6556 1313.58 35.4873C1313.62 35.3146 1313.67 35.1527 1313.72 35.0015L1315.03 30.8892H1316.19L1317.45 34.9951C1317.51 35.2023 1317.58 35.4182 1317.64 35.6427C1317.7 35.8672 1317.76 36.0852 1317.81 36.2968C1317.86 36.504 1317.9 36.6897 1317.92 36.8537H1317.97C1317.99 36.7069 1318.02 36.5256 1318.07 36.3097C1318.12 36.0939 1318.17 35.8564 1318.23 35.5973C1318.3 35.3383 1318.36 35.0749 1318.43 34.8073L1319.47 30.8892H1320.56L1318.6 37.987H1317.35ZM1324.55 37.2488C1324.73 37.2488 1324.91 37.2337 1325.09 37.2034C1325.28 37.1732 1325.43 37.1365 1325.55 37.0933V37.9288C1325.42 37.9849 1325.25 38.0324 1325.02 38.0712C1324.8 38.1101 1324.59 38.1295 1324.37 38.1295C1324 38.1295 1323.66 38.0648 1323.35 37.9352C1323.04 37.8014 1322.8 37.5769 1322.61 37.2617C1322.43 36.9465 1322.34 36.5105 1322.34 35.9535V31.744H1321.33V31.2195L1322.35 30.7985L1322.78 29.2572H1323.42V30.9021H1325.5V31.744H1323.42V35.9212C1323.42 36.3659 1323.52 36.6983 1323.73 36.9185C1323.93 37.1387 1324.21 37.2488 1324.55 37.2488ZM1328.46 27.9231V30.9345C1328.46 31.1072 1328.45 31.2821 1328.44 31.4591C1328.44 31.6318 1328.42 31.7915 1328.4 31.9383H1328.47C1328.62 31.6879 1328.8 31.4785 1329.03 31.3101C1329.26 31.1374 1329.52 31.0079 1329.8 30.9216C1330.09 30.8309 1330.4 30.7856 1330.72 30.7856C1331.29 30.7856 1331.77 30.8762 1332.15 31.0576C1332.53 31.2389 1332.82 31.5195 1333.01 31.8995C1333.2 32.2794 1333.3 32.7716 1333.3 33.376V38H1332.24V33.4473C1332.24 32.8558 1332.1 32.4132 1331.83 32.1197C1331.56 31.8261 1331.15 31.6793 1330.59 31.6793C1330.07 31.6793 1329.65 31.7807 1329.33 31.9837C1329.02 32.1823 1328.8 32.4758 1328.66 32.8644C1328.52 33.253 1328.46 33.7279 1328.46 34.2892V38H1327.38V27.9231H1328.46Z" fill="#C3C3C3"/>
<circle cx="1185.5" cy="23.5" r="17" stroke="#2D3C65"/>
<circle cx="1185.5" cy="23.5" r="23" stroke="#2D3C65"/>
<line x1="1184" y1="23" x2="1184" y2="225" stroke="#E95A0C" stroke-width="2"/>
<circle cx="1185.5" cy="23.5" r="9.5" fill="#E95A0C"/>
</g>
<defs>
<filter id="filter0_d_0_185" x="-4" y="0" width="1736" height="702" filterUnits="userSpaceOnUse" color-interpolation-filters="sRGB">
<feFlood flood-opacity="0" result="BackgroundImageFix"/>
<feColorMatrix in="SourceAlpha" type="matrix" values="0 0 0 0 0 0 0 0 0 0 0 0 0 0 0 0 0 0 127 0" result="hardAlpha"/>
<feOffset dy="4"/>
<feGaussianBlur stdDeviation="2"/>
<feComposite in2="hardAlpha" operator="out"/>
<feColorMatrix type="matrix" values="0 0 0 0 0 0 0 0 0 0 0 0 0 0 0 0 0 0 0.25 0"/>
<feBlend mode="normal" in2="BackgroundImageFix" result="effect1_dropShadow_0_185"/>
<feBlend mode="normal" in="SourceGraphic" in2="effect1_dropShadow_0_185" result="shape"/>
</filter>
<clipPath id="clip0_0_185">
<rect width="1728" height="694" fill="white"/>
</clipPath>
</defs>
</svg>
