<svg width="2087" height="473" viewBox="0 0 2087 473" fill="none" xmlns="http://www.w3.org/2000/svg">
<path fill-rule="evenodd" clip-rule="evenodd" d="M1 95.2V189.4H348.5V377.8H696H1043.5V1H1391V189.4H1738.5V236.5H2086V472H1738.5H1391H1043.5H696H348.5H1V95.2Z" fill="#2D3C65" fill-opacity="0.6"/>
<path d="M696 377.8H348.5V189.4H1V95.2V472M696 377.8V377.8ZM696 377.8H1043.5V1H1391V189.4H1738.5V236.5H2086V472H1738.5M1738.5 472V472ZM1738.5 472H1391M1391 472V472ZM1391 472H1043.5M1043.5 472V472ZM1043.5 472H696M696 472V472ZM696 472H348.5M348.5 472V472ZM348.5 472H1M1 472V472Z" stroke="#E95A0C" stroke-width="2"/>
</svg>
